<?xml version="1.0" encoding="utf-8"?>
<!-- Generator: Adobe Illustrator 28.0.0, SVG Export Plug-In . SVG Version: 6.00 Build 0)  -->
<svg version="1.1" id="Layer_1" xmlns="http://www.w3.org/2000/svg" xmlns:xlink="http://www.w3.org/1999/xlink" x="0px" y="0px"
	 viewBox="0 0 32 32" style="enable-background:new 0 0 32 32;" xml:space="preserve">
<style type="text/css">
	.st0{fill:url(#SVGID_1_);}
	.st1{fill:#F9F8F6;}
</style>
<g id="surface1">
	
		<linearGradient id="SVGID_1_" gradientUnits="userSpaceOnUse" x1="16" y1="2.4793" x2="16" y2="33.4261" gradientTransform="matrix(1 0 0 -1 0 34)">
		<stop  offset="0" style="stop-color:#FF3800"/>
		<stop  offset="1" style="stop-color:#FF0078"/>
	</linearGradient>
	<path class="st0" d="M-0.1,0h32.2v32H-0.1V0z"/>
	<g>
		<path class="st1" d="M3.9,15.8V2.9H2.1V0H7v15.7H3.9V15.8z"/>
		<path class="st1" d="M6.7,15.8l5.9-10.5c0.2-0.3,0.2-0.7,0.2-1.1c0-0.8-0.7-1.5-1.5-1.5S9.8,3.4,9.8,4.2v1.5h-3V4.5
			C6.9,2,8.9,0,11.4,0s4.5,2,4.5,4.5c0,1.4-0.5,2.1-0.7,2.4l-3.6,6h4.3v2.9C15.9,15.8,6.7,15.8,6.7,15.8z"/>
		<path class="st1" d="M18.2,32V19.2h-1.8v-2.9h4.9V32H18.2z"/>
		<path class="st1" d="M21,32l5.9-10.4c0.2-0.3,0.2-0.7,0.2-1.1c0-0.8-0.7-1.5-1.5-1.5s-1.5,0.7-1.5,1.5v1.4h-3v-1.2
			c0-2.5,2-4.5,4.5-4.5s4.5,2,4.5,4.5c0,1.4-0.5,2.1-0.7,2.4l-3.6,6h4.3V32H21z"/>
		<path class="st1" d="M12.8,32v-1.3c0-2.5-0.2-3.7-1.3-4.9c-1.1,1.1-1.3,2.4-1.3,4.9V32H7.1v-1.3c0-2.6,0.4-4.9,2.2-6.6
			c-1.8-1.7-2.2-4-2.2-6.6v-1.3h3.1v1.3c0,2.2,0.2,3.7,1.3,4.9c1.1-1.1,1.3-2.5,1.3-4.9v-1.3h3.1v1.3c0,2.6-0.4,4.9-2.2,6.6
			c1.8,1.6,2.2,4,2.2,6.6V32H12.8z"/>
	</g>
</g>
</svg>
