<?xml version="1.0" encoding="utf-8"?>
<!-- Generator: Adobe Illustrator 28.0.0, SVG Export Plug-In . SVG Version: 6.00 Build 0)  -->
<svg version="1.1" id="Layer_1" xmlns="http://www.w3.org/2000/svg" xmlns:xlink="http://www.w3.org/1999/xlink" x="0px" y="0px"
	 viewBox="0 0 1200 1200" style="enable-background:new 0 0 1200 1200;" xml:space="preserve">
<style type="text/css">
	.st0{fill:#F9F8F6;}
</style>
<g id="surface1">
	<g>
		<path class="st0" d="M141.7,589.8V108.3H73V-0.5h182.8v590.3H141.7z"/>
		<path class="st0" d="M248.3,589.8l222.3-392.1c7.5-12.7,9.1-27.5,9.1-40.3c0-30.6-25.5-55.9-56.1-55.9c-30.7,0-56,25.3-56,55.9
			v54.6h-112v-44.8c0-92.5,75.3-168,168-168c92.6,0,168.1,75.5,168.1,168c0,50.7-20.2,79.2-26.9,90.3L429.7,482.2h162v107.5H248.3z"
			/>
		<path class="st0" d="M676.9,1199V717.5h-68.4V608.4h182.8V1199H676.9z"/>
		<path class="st0" d="M783.5,1199.1L1006,807.1c7.5-12.8,9.1-27.7,9.1-40.3c0-30.6-25.5-56.1-56.1-56.1c-30.7,0-56,25.5-56,56.1
			v54.4H791v-44.6c0-92.7,75.3-168.2,168-168.2c92.6,0,167.9,75.5,167.9,168.2c0,50.7-20.2,79-26.8,90.3l-135,224.8H1127v107.5
			H783.5z"/>
		<path class="st0" d="M477.2,1199v-48c0-93.6-7.6-139.4-50.4-182.1c-42,42.7-50.4,89.9-50.4,182.1v48H261.4v-48
			c0-97.5,15.3-185.2,81.1-246.8c-65.8-62.4-81.1-150.1-81.1-247.6v-48h114.9v48c0,83.9,8.4,140.2,50.4,182
			c41.3-42.5,50.4-92,50.4-182v-48H592v48c0,97.5-16,185.2-81.9,247.6C576,965.8,592,1053.5,592,1151v48H477.2z"/>
	</g>
</g>
</svg>
